<svg width="79" height="48" viewBox="0 0 79 48" fill="none" xmlns="http://www.w3.org/2000/svg">
<path d="M35.0765 21.617L22.2922 47.4574L22.083 47.883H22.0746C22.0662 47.9 22.057 47.908 22.057 47.925V47.933C22.057 47.9411 22.057 47.9411 22.0486 47.95C22.0402 47.9588 22.031 47.9749 22.031 47.983V47.9919L22.0226 47.9999L21.0231 47.3325C21.0183 47.328 21.0121 47.3251 21.0054 47.3244C21.0011 47.3197 20.9951 47.3166 20.9886 47.3156V47.3075L11.8336 41.2101L2.51641 35.0032C1.63398 34.414 0.937771 33.6028 0.504234 32.6587C0.0706937 31.7146 -0.0834144 30.6742 0.058825 29.6515C0.201064 28.6288 0.634155 27.6636 1.31054 26.8617C1.98693 26.0598 2.88046 25.4523 3.89303 25.1059L22.6046 18.7167C23.1533 18.5257 23.7214 18.3906 24.2996 18.3136V18.3056C24.3256 18.2967 24.334 18.2967 24.3516 18.3056C24.3657 18.3005 24.3804 18.2975 24.3953 18.2967C26.2179 18.0445 28.0775 18.3254 29.7313 19.1028L34.0073 21.1132L34.1811 21.1938L34.9203 21.5356L35.0765 21.617Z" fill="url(#paint0_linear)"/>
<g style="mix-blend-mode:multiply" opacity="0.15">
<g style="mix-blend-mode:multiply" opacity="0.15">
<path d="M35.0764 21.6171L22.292 47.4575L22.0829 47.8831H22.0745C22.0661 47.9001 22.0569 47.9081 22.0569 47.9251V47.9331C22.0569 47.9412 22.0569 47.9412 22.0485 47.95C22.0401 47.9589 22.0308 47.975 22.0308 47.9831V47.992L22.0224 48L21.0229 47.3326C21.0182 47.328 21.0119 47.3251 21.0053 47.3245C21.0009 47.3197 20.995 47.3166 20.9885 47.3156V47.3076L11.8334 41.2102L12.2593 40.8249L34.0038 21.1149L34.1776 21.1955L34.9168 21.5373L35.0764 21.6171Z" fill="black"/>
</g>
</g>
<g style="mix-blend-mode:multiply" opacity="0.3">
<g style="mix-blend-mode:multiply" opacity="0.3">
<path d="M35.0764 21.6171L22.0863 47.8831C22.0941 47.8841 22.1012 47.888 22.1062 47.8938C22.1112 47.8997 22.1136 47.9072 22.1131 47.9147C22.1125 47.9222 22.1091 47.9293 22.1033 47.9345C22.0976 47.9397 22.09 47.9425 22.0821 47.9425C22.0742 47.9425 22.0666 47.9397 22.0609 47.9345C22.0551 47.9293 22.0516 47.9222 22.0511 47.9147C22.0505 47.9072 22.053 47.8997 22.058 47.8938C22.063 47.888 22.0701 47.8841 22.0779 47.8831C22.2173 47.5414 22.6658 46.4821 23.3638 44.8724C24.2508 42.895 25.4586 40.0511 26.9973 36.6727C28.536 33.2943 30.3343 29.3654 32.3156 25.1704C32.9329 23.8807 33.5503 22.5425 34.1844 21.1996L35.0764 21.6171Z" fill="black"/>
</g>
</g>
<path d="M77.7665 26.7053C77.7584 26.7151 77.7524 26.7263 77.7489 26.7383C77.7377 26.7623 77.7233 26.7848 77.706 26.8052C77.6363 26.9471 77.5582 27.089 77.4793 27.222L69.4572 40.6347C68.1162 42.8727 66.1841 44.7319 63.8557 46.0248C61.5274 47.3177 58.885 47.9987 56.195 47.9992H22.0223L22.0307 47.9912V47.9831C22.0307 47.975 22.0399 47.9662 22.0483 47.9501C22.0567 47.9339 22.0567 47.9412 22.0567 47.9331C22.0588 47.9155 22.0648 47.8984 22.0744 47.8831H22.0828L41.6637 7.72077C42.6183 5.76462 44.0514 4.05885 45.8409 2.74869C47.6303 1.43853 49.7231 0.562796 51.9412 0.196041C54.1591 -0.170714 56.4367 -0.0176234 58.5798 0.642278C60.7229 1.30218 62.6681 2.44934 64.2498 3.9861L70.2375 9.80856C70.2605 9.83371 70.2868 9.85588 70.3156 9.87466C70.3181 9.87466 70.3204 9.87563 70.3222 9.87724C70.3239 9.87894 70.3249 9.88119 70.3249 9.88353L70.3333 9.89159L75.8607 15.2635C77.3831 16.741 78.3854 18.6388 78.7271 20.6908C79.0689 22.7427 78.733 24.8458 77.7665 26.7053Z" fill="url(#paint1_linear)"/>
<g style="mix-blend-mode:multiply" opacity="0.3">
<g style="mix-blend-mode:multiply" opacity="0.3">
<path d="M77.7486 26.7383C77.6647 26.9051 77.5748 27.0607 77.479 27.2219L69.457 40.6347C68.1159 42.8727 66.1839 44.7318 63.8556 46.0248C61.5271 47.3177 58.8848 47.9988 56.1948 47.9992H32.4597C32.4597 47.9992 33.3466 47.9242 34.8954 47.838C36.4442 47.7517 38.6406 47.6131 41.2914 47.5212C43.9421 47.4132 47.0364 47.3213 50.3482 47.2624C51.9994 47.2374 53.7078 47.1963 55.4498 47.1875C57.1231 47.2402 58.7941 47.0261 60.3944 46.5539C63.5522 45.6366 66.301 43.7346 68.2056 41.149C68.4399 40.8402 68.6398 40.5234 68.8481 40.2058C69.0572 39.8722 69.268 39.5384 69.4738 39.2135C69.8938 38.563 70.2995 37.9286 70.6993 37.303C71.4821 36.0608 72.2464 34.8928 72.9595 33.8167C74.3587 31.6563 75.5926 29.8966 76.4266 28.6455C76.8466 28.02 77.2002 27.5444 77.4261 27.2107C77.5924 26.96 77.7058 26.8052 77.7486 26.7383Z" fill="black"/>
</g>
</g>
<g style="mix-blend-mode:screen" opacity="0.4">
<g style="mix-blend-mode:screen" opacity="0.4">
<path d="M22.0746 47.8831H22.083C22.0908 47.8842 22.0979 47.888 22.1029 47.8938C22.1079 47.8997 22.1103 47.9071 22.1098 47.9147C22.1092 47.9222 22.1058 47.9293 22.1 47.9345C22.0943 47.9396 22.0867 47.9425 22.0788 47.9425C22.0709 47.9425 22.0634 47.9396 22.0576 47.9345C22.0518 47.9293 22.0483 47.9222 22.0477 47.9147C22.0472 47.9071 22.0497 47.8997 22.0547 47.8938C22.0597 47.888 22.0668 47.8842 22.0746 47.8831Z" fill="white"/>
</g>
</g>
<g style="mix-blend-mode:screen" opacity="0.4">
<g style="mix-blend-mode:screen" opacity="0.4">
<path d="M70.2403 9.80612C69.9539 9.56429 69.0754 8.79688 67.7458 7.60382C66.9294 6.86946 65.9383 5.97711 64.8002 4.95094C64.5213 4.70105 64.2123 4.40924 63.9309 4.17547C63.6095 3.92558 63.2791 3.66709 62.9398 3.4C62.6034 3.13854 62.2493 2.89887 61.8798 2.68257C61.5106 2.43152 61.1168 2.21554 60.7039 2.03769C58.9357 1.1696 56.9879 0.690978 55.0026 0.636683C52.8043 0.587932 50.6257 1.0454 48.6495 1.97078C46.5554 2.95785 44.7689 4.45665 43.4698 6.31647C42.8187 7.30969 42.2492 8.34998 41.7664 9.42806C41.2356 10.5373 40.6972 11.6553 40.158 12.7645C39.0661 14.9829 37.9683 17.2021 36.8991 19.3874C35.8299 21.5728 34.7347 23.7162 33.6923 25.7935C31.606 29.9385 29.6246 33.7925 27.8969 37.0789C26.1843 40.3735 24.6901 43.0933 23.673 45.0118C22.8331 46.5547 22.2653 47.5639 22.0822 47.8807L41.6631 7.71829C42.6179 5.76216 44.0512 4.05647 45.8408 2.74646C47.6305 1.43644 49.7235 0.560897 51.9416 0.194377C54.1598 -0.172145 56.4373 -0.0187847 58.5803 0.641395C60.7234 1.30157 62.6686 2.44902 64.25 3.98604L70.2403 9.80612Z" fill="white"/>
</g>
</g>
<g style="mix-blend-mode:screen" opacity="0.2">
<g style="mix-blend-mode:screen" opacity="0.2">
<path d="M74.8642 24.7698L74.734 24.8948L74.5509 25.3953C74.5243 25.456 74.4927 25.5146 74.456 25.5703L66.4424 38.9749C65.55 40.4616 64.3167 41.7338 62.8358 42.6951L48.6346 4.91793C50.3412 3.8762 52.3234 3.32618 54.3459 3.33313C55.731 3.3339 57.1022 3.59906 58.3794 4.11318C59.6567 4.6273 60.8147 5.38012 61.7859 6.3278L66.854 11.2571V11.3071L67.7661 12.1495C67.8182 12.1914 67.8795 12.2583 67.9576 12.3252L73.3893 17.6044C74.34 18.5284 74.9868 19.7003 75.249 20.9743C75.5112 22.2483 75.3774 23.5682 74.8642 24.7698Z" fill="white"/>
</g>
</g>
<g style="mix-blend-mode:multiply" opacity="0.3">
<g style="mix-blend-mode:multiply" opacity="0.3">
<path d="M20.9888 47.3158V47.3075C20.9972 47.3075 20.9972 47.3158 21.0056 47.3249C21.0012 47.32 20.9954 47.3168 20.9888 47.3158Z" fill="black"/>
</g>
</g>
<g style="mix-blend-mode:multiply" opacity="0.3">
<g style="mix-blend-mode:multiply" opacity="0.3">
<path d="M22.6044 18.7143C23.1532 18.5233 23.7213 18.3883 24.2994 18.3112C24.2036 18.3362 24.0215 18.3781 23.7695 18.445C23.1951 18.6123 22.6337 18.8183 22.0897 19.0617C20.6383 19.626 18.5955 20.4885 16.1102 21.4389C13.6249 22.3893 10.7156 23.4936 7.58685 24.6222C6.80405 24.9059 6.01367 25.1865 5.20567 25.4815C4.81427 25.6314 4.3708 25.7733 4.01468 25.9232L3.50149 26.1401L3.02358 26.4319C2.09619 27.0736 1.41717 27.9928 1.0932 29.0451C0.769234 30.0974 0.818657 31.2231 1.23372 32.2455C1.3846 32.5775 1.57095 32.8936 1.78976 33.1886C1.88279 33.3366 1.99575 33.4721 2.12572 33.5917C2.23895 33.7322 2.36733 33.8608 2.50872 33.9754L3.02107 34.368L3.50821 34.7017C3.85594 34.9435 4.21207 35.1853 4.55979 35.4272C5.25524 35.9108 5.94986 36.3864 6.62767 36.8532C8.64349 38.2462 10.5476 39.5891 12.2602 40.8322C12.8599 41.2489 13.436 41.6664 13.9811 42.0662C16.1186 43.6099 17.8657 44.9529 19.0996 45.8622C20.1772 46.6683 20.8382 47.1963 20.986 47.3132L11.8309 41.2158L2.51376 35.0088C1.62978 34.4199 0.932233 33.6082 0.497822 32.6633C0.0634151 31.7184 -0.0909997 30.6767 0.051567 29.6531C0.194134 28.6293 0.628146 27.6632 1.30588 26.861C1.9836 26.0587 2.87877 25.4514 3.8929 25.1058L22.6044 18.7143Z" fill="black"/>
</g>
</g>
<g style="mix-blend-mode:multiply" opacity="0.3">
<g style="mix-blend-mode:multiply" opacity="0.3">
<path d="M24.2993 18.306C24.3253 18.2969 24.3337 18.2969 24.3513 18.306C24.3343 18.3101 24.3168 18.3129 24.2993 18.3143V18.306Z" fill="black"/>
</g>
</g>
<defs>
<linearGradient id="paint0_linear" x1="5.68858" y1="21.9309" x2="25.6122" y2="37.4792" gradientUnits="userSpaceOnUse">
<stop stop-color="#6A9DFF"/>
<stop offset="1" stop-color="#6AC9FF"/>
</linearGradient>
<linearGradient id="paint1_linear" x1="44.6426" y1="48.2872" x2="60.6545" y2="1.56271" gradientUnits="userSpaceOnUse">
<stop stop-color="#0038FF"/>
<stop offset="0.171875" stop-color="#1400FB"/>
<stop offset="0.34375" stop-color="#0019FB"/>
<stop offset="0.499" stop-color="#0601FA"/>
<stop offset="0.707" stop-color="#0702F9"/>
<stop offset="0.773773" stop-color="#0702F9"/>
<stop offset="0.926" stop-color="#031CF8"/>
<stop offset="1" stop-color="#0904F8"/>
</linearGradient>
</defs>
</svg>
