<svg width="412" height="245" viewBox="0 0 412 245" fill="none" xmlns="http://www.w3.org/2000/svg">
<g clip-path="url(#clip0)">
<path d="M399.64 0.412354H12.3601C5.76141 0.412354 0.412109 5.7676 0.412109 12.3736V232.626C0.412109 239.232 5.76141 244.587 12.3601 244.587H399.64C406.239 244.587 411.588 239.232 411.588 232.626V12.3736C411.588 5.7676 406.239 0.412354 399.64 0.412354Z" fill="#F5F6FA" stroke="#037CFF"/>
<path d="M105.482 198.805V190.594H108.293C109.22 190.594 109.926 190.78 110.41 191.153C110.895 191.525 111.137 192.079 111.137 192.816C111.137 193.192 111.036 193.53 110.833 193.831C110.63 194.132 110.334 194.365 109.943 194.53C110.386 194.65 110.728 194.878 110.968 195.213C111.212 195.544 111.334 195.942 111.334 196.408C111.334 197.179 111.086 197.771 110.591 198.184C110.099 198.598 109.393 198.805 108.473 198.805H105.482ZM106.907 195.1V197.666H108.49C108.936 197.666 109.286 197.555 109.538 197.333C109.789 197.111 109.915 196.803 109.915 196.408C109.915 195.555 109.479 195.119 108.608 195.1H106.907ZM106.907 194.051H108.304C108.747 194.051 109.093 193.952 109.34 193.752C109.592 193.549 109.717 193.264 109.717 192.895C109.717 192.489 109.601 192.196 109.369 192.016C109.14 191.835 108.78 191.744 108.293 191.744H106.907V194.051ZM114.1 194.643H115.441C115.94 194.643 116.375 194.73 116.748 194.903C117.119 195.075 117.401 195.318 117.592 195.63C117.788 195.942 117.885 196.304 117.885 196.719C117.885 197.346 117.664 197.849 117.221 198.23C116.777 198.609 116.188 198.801 115.452 198.805H112.731V192.704H114.1V194.643ZM120.268 198.805H118.899V192.704H120.268V198.805ZM114.1 195.743V197.711H115.435C115.769 197.711 116.032 197.628 116.224 197.463C116.419 197.294 116.516 197.055 116.516 196.747C116.516 196.438 116.421 196.196 116.229 196.019C116.041 195.838 115.786 195.747 115.463 195.743H114.1ZM124.78 193.042C125.546 193.042 126.159 193.299 126.622 193.814C127.084 194.325 127.315 195.021 127.315 195.9V195.969C127.315 196.848 127.062 197.561 126.56 198.105C126.061 198.65 125.381 198.924 124.52 198.924C123.683 198.924 123.008 198.645 122.493 198.089C121.978 197.532 121.721 196.773 121.721 195.81V195.416C121.721 194.1 121.954 193.058 122.419 192.291C122.885 191.525 123.58 191.046 124.504 190.853C125.022 190.749 125.356 190.637 125.506 190.521C125.66 190.4 125.738 190.239 125.738 190.036H126.842C126.842 190.415 126.779 190.724 126.655 190.961C126.532 191.197 126.342 191.391 126.087 191.541C125.831 191.688 125.391 191.828 124.768 191.959C124.197 192.079 123.762 192.294 123.462 192.601C123.165 192.91 122.966 193.336 122.864 193.882C123.409 193.322 124.047 193.042 124.78 193.042ZM124.51 194.142C124.066 194.142 123.719 194.292 123.467 194.593C123.216 194.89 123.09 195.348 123.09 195.969C123.09 196.554 123.214 197.011 123.462 197.339C123.71 197.666 124.062 197.829 124.52 197.829C124.975 197.829 125.326 197.666 125.574 197.339C125.826 197.008 125.952 196.511 125.952 195.85C125.952 195.324 125.826 194.908 125.574 194.603C125.326 194.296 124.971 194.142 124.51 194.142ZM131.071 198.918C130.204 198.918 129.5 198.645 128.959 198.1C128.422 197.551 128.153 196.822 128.153 195.912V195.743C128.153 195.134 128.27 194.59 128.503 194.113C128.739 193.632 129.07 193.258 129.494 192.991C129.918 192.724 130.392 192.591 130.914 192.591C131.744 192.591 132.384 192.855 132.835 193.386C133.289 193.915 133.516 194.665 133.516 195.635V196.188H129.534C129.575 196.692 129.742 197.091 130.035 197.383C130.332 197.677 130.704 197.824 131.15 197.824C131.777 197.824 132.288 197.57 132.682 197.063L133.42 197.767C133.177 198.132 132.849 198.415 132.441 198.618C132.035 198.818 131.579 198.918 131.071 198.918ZM130.908 193.69C130.532 193.69 130.228 193.821 129.996 194.085C129.767 194.348 129.62 194.715 129.557 195.184H132.165V195.083C132.134 194.624 132.012 194.278 131.798 194.045C131.584 193.808 131.287 193.69 130.908 193.69ZM139.921 195.816C139.921 196.76 139.707 197.514 139.278 198.077C138.851 198.637 138.276 198.918 137.555 198.918C136.886 198.918 136.351 198.698 135.949 198.258V201.151H134.581V192.704H135.842L135.899 193.323C136.3 192.835 136.847 192.591 137.538 192.591C138.281 192.591 138.864 192.869 139.284 193.425C139.708 193.977 139.921 194.746 139.921 195.731V195.816ZM138.557 195.697C138.557 195.089 138.435 194.606 138.191 194.249C137.951 193.892 137.606 193.713 137.155 193.713C136.595 193.713 136.194 193.944 135.949 194.406V197.113C136.197 197.586 136.603 197.824 137.166 197.824C137.602 197.824 137.942 197.649 138.186 197.299C138.434 196.945 138.557 196.412 138.557 195.697ZM144.889 192.704H146.252V198.805H144.889V194.733L142.501 198.805H141.137V192.704H142.501V196.775L144.889 192.704ZM152.504 193.792H150.528V198.805H149.159V193.792H147.204V192.704H152.504V193.792ZM155.743 198.918C154.876 198.918 154.172 198.645 153.631 198.1C153.094 197.551 152.826 196.822 152.826 195.912V195.743C152.826 195.134 152.942 194.59 153.175 194.113C153.412 193.632 153.742 193.258 154.166 192.991C154.591 192.724 155.064 192.591 155.585 192.591C156.416 192.591 157.056 192.855 157.506 193.386C157.961 193.915 158.188 194.665 158.188 195.635V196.188H154.206C154.247 196.692 154.414 197.091 154.707 197.383C155.004 197.677 155.375 197.824 155.822 197.824C156.45 197.824 156.96 197.57 157.354 197.063L158.092 197.767C157.848 198.132 157.522 198.415 157.112 198.618C156.707 198.818 156.25 198.918 155.743 198.918ZM155.58 193.69C155.205 193.69 154.901 193.821 154.667 194.085C154.438 194.348 154.292 194.715 154.228 195.184H156.836V195.083C156.806 194.624 156.684 194.278 156.47 194.045C156.256 193.808 155.959 193.69 155.58 193.69ZM161.9 195.838C161.9 194.843 162.095 194.053 162.485 193.47C162.88 192.884 163.428 192.591 164.131 192.591C164.416 192.591 164.675 192.643 164.908 192.748V190.143H166.271V192.771C166.512 192.651 166.793 192.591 167.116 192.591C167.814 192.591 168.361 192.882 168.755 193.464C169.153 194.043 169.352 194.874 169.352 195.957C169.352 196.87 169.153 197.592 168.755 198.123C168.357 198.652 167.814 198.918 167.127 198.918C166.816 198.918 166.53 198.861 166.271 198.749V201.151H164.908V198.771C164.679 198.868 164.416 198.918 164.119 198.918C163.462 198.918 162.936 198.675 162.542 198.19C162.152 197.701 161.939 197.03 161.905 196.177L161.9 195.838ZM167.983 195.838C167.983 195.155 167.874 194.627 167.657 194.254C167.438 193.878 167.131 193.69 166.733 193.69C166.564 193.69 166.41 193.714 166.271 193.764V197.767C166.395 197.805 166.553 197.824 166.744 197.824C167.57 197.824 167.983 197.162 167.983 195.838ZM163.263 195.957C163.263 196.566 163.365 197.03 163.567 197.35C163.77 197.666 164.071 197.824 164.469 197.824C164.638 197.824 164.784 197.805 164.908 197.767V193.746C164.78 193.709 164.638 193.69 164.48 193.69C164.089 193.69 163.789 193.873 163.579 194.237C163.368 194.598 163.263 195.171 163.263 195.957ZM170.276 195.697C170.276 195.1 170.394 194.562 170.631 194.085C170.867 193.604 171.2 193.235 171.628 192.979C172.056 192.72 172.548 192.591 173.103 192.591C173.926 192.591 174.592 192.855 175.103 193.386C175.618 193.915 175.895 194.618 175.937 195.494L175.942 195.816C175.942 196.417 175.826 196.955 175.594 197.429C175.365 197.902 175.034 198.269 174.602 198.528C174.174 198.787 173.678 198.918 173.115 198.918C172.255 198.918 171.566 198.632 171.048 198.061C170.533 197.485 170.276 196.72 170.276 195.765V195.697ZM171.645 195.816C171.645 196.444 171.774 196.936 172.033 197.294C172.293 197.647 172.653 197.824 173.115 197.824C173.576 197.824 173.936 197.643 174.19 197.282C174.45 196.921 174.579 196.393 174.579 195.697C174.579 195.081 174.446 194.593 174.18 194.231C173.917 193.871 173.558 193.69 173.103 193.69C172.657 193.69 172.302 193.868 172.039 194.226C171.776 194.58 171.645 195.109 171.645 195.816ZM181.727 193.792H179.751V198.805H178.381V193.792H176.427V192.704H181.727V193.792ZM182.218 195.697C182.218 195.1 182.336 194.562 182.572 194.085C182.809 193.604 183.141 193.235 183.569 192.979C183.998 192.72 184.49 192.591 185.045 192.591C185.867 192.591 186.534 192.855 187.045 193.386C187.559 193.915 187.837 194.618 187.879 195.494L187.884 195.816C187.884 196.417 187.767 196.955 187.535 197.429C187.306 197.902 186.976 198.269 186.544 198.528C186.115 198.787 185.62 198.918 185.056 198.918C184.196 198.918 183.507 198.632 182.989 198.061C182.475 197.485 182.218 196.72 182.218 195.765V195.697ZM183.586 195.816C183.586 196.444 183.716 196.936 183.975 197.294C184.234 197.647 184.594 197.824 185.056 197.824C185.519 197.824 185.877 197.643 186.133 197.282C186.391 196.921 186.521 196.393 186.521 195.697C186.521 195.081 186.388 194.593 186.121 194.231C185.858 193.871 185.5 193.69 185.045 193.69C184.598 193.69 184.243 193.868 183.98 194.226C183.717 194.58 183.586 195.109 183.586 195.816ZM193.1 193.808H190.453V198.805H189.09V192.704H193.1V193.808ZM199.212 195.816C199.212 196.76 198.998 197.514 198.569 198.077C198.142 198.637 197.567 198.918 196.846 198.918C196.177 198.918 195.642 198.698 195.24 198.258V201.151H193.872V192.704H195.133L195.19 193.323C195.591 192.835 196.138 192.591 196.829 192.591C197.572 192.591 198.155 192.869 198.575 193.425C198.999 193.977 199.212 194.746 199.212 195.731V195.816ZM197.848 195.697C197.848 195.089 197.726 194.606 197.482 194.249C197.242 193.892 196.896 193.713 196.446 193.713C195.886 193.713 195.485 193.944 195.24 194.406V197.113C195.488 197.586 195.894 197.824 196.457 197.824C196.893 197.824 197.233 197.649 197.477 197.299C197.725 196.945 197.848 196.412 197.848 195.697ZM204.017 198.805C203.957 198.688 203.904 198.499 203.858 198.236C203.423 198.69 202.89 198.918 202.259 198.918C201.647 198.918 201.148 198.743 200.761 198.393C200.374 198.043 200.181 197.611 200.181 197.096C200.181 196.445 200.421 195.947 200.901 195.602C201.386 195.252 202.077 195.077 202.974 195.077H203.814V194.677C203.814 194.361 203.726 194.109 203.549 193.921C203.372 193.73 203.104 193.633 202.744 193.633C202.432 193.633 202.177 193.713 201.977 193.871C201.779 194.024 201.679 194.222 201.679 194.462H200.31C200.31 194.128 200.421 193.816 200.642 193.527C200.864 193.233 201.165 193.004 201.544 192.839C201.927 192.673 202.353 192.591 202.823 192.591C203.535 192.591 204.105 192.771 204.529 193.132C204.954 193.489 205.171 193.993 205.183 194.643V197.395C205.183 197.944 205.259 198.382 205.413 198.709V198.805H204.017ZM202.513 197.818C202.783 197.818 203.036 197.752 203.273 197.62C203.513 197.489 203.694 197.312 203.814 197.091V195.94H203.076C202.569 195.94 202.187 196.028 201.932 196.205C201.677 196.382 201.55 196.632 201.55 196.955C201.55 197.218 201.635 197.429 201.808 197.586C201.985 197.741 202.22 197.818 202.513 197.818ZM206.388 195.838C206.388 194.843 206.583 194.053 206.974 193.47C207.368 192.884 207.917 192.591 208.619 192.591C208.904 192.591 209.163 192.643 209.396 192.748V190.143H210.759V192.771C210.999 192.651 211.281 192.591 211.604 192.591C212.302 192.591 212.849 192.882 213.243 193.464C213.641 194.043 213.84 194.874 213.84 195.957C213.84 196.87 213.641 197.592 213.243 198.123C212.845 198.652 212.302 198.918 211.615 198.918C211.303 198.918 211.018 198.861 210.759 198.749V201.151H209.396V198.771C209.167 198.868 208.904 198.918 208.607 198.918C207.95 198.918 207.425 198.675 207.03 198.19C206.639 197.701 206.428 197.03 206.394 196.177L206.388 195.838ZM212.472 195.838C212.472 195.155 212.362 194.627 212.145 194.254C211.927 193.878 211.619 193.69 211.221 193.69C211.052 193.69 210.898 193.714 210.759 193.764V197.767C210.883 197.805 211.04 197.824 211.232 197.824C212.058 197.824 212.472 197.162 212.472 195.838ZM207.751 195.957C207.751 196.566 207.852 197.03 208.055 197.35C208.258 197.666 208.559 197.824 208.957 197.824C209.125 197.824 209.272 197.805 209.396 197.767V193.746C209.268 193.709 209.125 193.69 208.968 193.69C208.578 193.69 208.277 193.873 208.067 194.237C207.857 194.598 207.751 195.171 207.751 195.957ZM218.825 192.704H220.188V198.805H218.825V194.733L216.437 198.805H215.074V192.704H216.437V196.775L218.825 192.704ZM225.45 192.704H226.813V198.805H225.45V194.733L223.061 198.805H221.698V192.704H223.061V196.775L225.45 192.704ZM231.167 197.711C231.546 197.286 231.799 196.884 231.927 196.504C232.058 196.12 232.137 195.632 232.164 195.038L232.243 192.704H236.472V197.711H237.318V200.62H235.955V198.805H232.045V200.62H230.66L230.666 197.711H231.167ZM232.772 197.711H235.109V193.882H233.572L233.532 195.049C233.48 196.169 233.227 197.057 232.772 197.711ZM243.475 192.704V198.805H242.105V193.808H240.382L240.269 195.935C240.198 196.957 240.001 197.692 239.678 198.139C239.359 198.583 238.869 198.805 238.208 198.805H237.785L237.779 197.666L238.061 197.638C238.362 197.596 238.579 197.414 238.714 197.091C238.854 196.763 238.942 196.169 238.979 195.309L239.092 192.704H243.475ZM249.811 192.704V198.805H248.448V196.566H247.17L245.868 198.805H244.449L245.885 196.341C245.51 196.182 245.221 195.957 245.018 195.663C244.819 195.371 244.719 195.034 244.719 194.655C244.719 194.087 244.937 193.623 245.372 193.261C245.812 192.897 246.403 192.711 247.147 192.704H249.811ZM246.088 194.688C246.088 194.944 246.182 195.153 246.369 195.315C246.561 195.472 246.805 195.551 247.102 195.551H248.448V193.792H247.186C246.852 193.792 246.585 193.876 246.387 194.045C246.187 194.215 246.088 194.429 246.088 194.688ZM258.818 194.372C258.818 194.643 258.735 194.893 258.57 195.122C258.409 195.348 258.18 195.528 257.883 195.663C258.581 195.908 258.931 196.38 258.931 197.079C258.931 197.639 258.704 198.087 258.249 198.421C257.795 198.752 257.186 198.918 256.424 198.918C255.958 198.918 255.534 198.84 255.151 198.686C254.768 198.528 254.469 198.307 254.255 198.021C254.042 197.732 253.935 197.389 253.935 196.995H255.298C255.298 197.242 255.409 197.451 255.63 197.62C255.851 197.786 256.131 197.868 256.469 197.868C256.804 197.868 257.068 197.792 257.264 197.638C257.462 197.48 257.562 197.275 257.562 197.023C257.562 196.726 257.475 196.511 257.303 196.38C257.13 196.248 256.864 196.182 256.503 196.182H255.523V195.196H256.537C257.149 195.188 257.455 194.937 257.455 194.44C257.455 194.192 257.367 193.999 257.19 193.859C257.014 193.72 256.772 193.651 256.463 193.651C256.164 193.651 255.91 193.726 255.703 193.876C255.497 194.023 255.393 194.209 255.393 194.434H254.03C254.03 193.896 254.255 193.457 254.706 193.115C255.157 192.769 255.729 192.596 256.424 192.596C257.179 192.596 257.767 192.75 258.187 193.058C258.608 193.367 258.818 193.805 258.818 194.372ZM263.735 198.805C263.675 198.688 263.623 198.499 263.578 198.236C263.142 198.69 262.609 198.918 261.978 198.918C261.366 198.918 260.867 198.743 260.48 198.393C260.093 198.043 259.9 197.611 259.9 197.096C259.9 196.445 260.14 195.947 260.621 195.602C261.105 195.252 261.796 195.077 262.694 195.077H263.533V194.677C263.533 194.361 263.444 194.109 263.268 193.921C263.092 193.73 262.823 193.633 262.462 193.633C262.151 193.633 261.895 193.713 261.697 193.871C261.497 194.024 261.398 194.222 261.398 194.462H260.029C260.029 194.128 260.14 193.816 260.362 193.527C260.583 193.233 260.883 193.004 261.262 192.839C261.646 192.673 262.072 192.591 262.541 192.591C263.255 192.591 263.823 192.771 264.248 193.132C264.672 193.489 264.891 193.993 264.901 194.643V197.395C264.901 197.944 264.979 198.382 265.133 198.709V198.805H263.735ZM262.231 197.818C262.502 197.818 262.756 197.752 262.992 197.62C263.233 197.489 263.412 197.312 263.533 197.091V195.94H262.795C262.288 195.94 261.907 196.028 261.651 196.205C261.396 196.382 261.268 196.632 261.268 196.955C261.268 197.218 261.355 197.429 261.528 197.586C261.704 197.741 261.939 197.818 262.231 197.818ZM270.393 193.808H267.746V198.805H266.383V192.704H270.393V193.808ZM276.505 195.816C276.505 196.76 276.291 197.514 275.863 198.077C275.435 198.637 274.86 198.918 274.139 198.918C273.471 198.918 272.936 198.698 272.534 198.258V201.151H271.165V192.704H272.427L272.484 193.323C272.885 192.835 273.431 192.591 274.123 192.591C274.866 192.591 275.448 192.869 275.869 193.425C276.293 193.977 276.505 194.746 276.505 195.731V195.816ZM275.142 195.697C275.142 195.089 275.02 194.606 274.776 194.249C274.535 193.892 274.19 193.713 273.739 193.713C273.18 193.713 272.778 193.944 272.534 194.406V197.113C272.782 197.586 273.187 197.824 273.751 197.824C274.186 197.824 274.526 197.649 274.77 197.299C275.018 196.945 275.142 196.412 275.142 195.697ZM279.732 196.842L280.972 192.704H282.431L280.008 199.729C279.637 200.756 279.006 201.269 278.117 201.269C277.917 201.269 277.697 201.235 277.457 201.167V200.107L277.716 200.125C278.061 200.125 278.321 200.06 278.494 199.932C278.67 199.809 278.809 199.598 278.91 199.301L279.108 198.777L276.967 192.704H278.443L279.732 196.842ZM287.838 194.372C287.838 194.643 287.756 194.893 287.591 195.122C287.429 195.348 287.2 195.528 286.904 195.663C287.602 195.908 287.951 196.38 287.951 197.079C287.951 197.639 287.724 198.087 287.27 198.421C286.815 198.752 286.207 198.918 285.444 198.918C284.979 198.918 284.554 198.84 284.171 198.686C283.788 198.528 283.49 198.307 283.276 198.021C283.061 197.732 282.955 197.389 282.955 196.995H284.318C284.318 197.242 284.428 197.451 284.65 197.62C284.872 197.786 285.152 197.868 285.49 197.868C285.823 197.868 286.089 197.792 286.284 197.638C286.483 197.48 286.582 197.275 286.582 197.023C286.582 196.726 286.496 196.511 286.323 196.38C286.151 196.248 285.884 196.182 285.523 196.182H284.543V195.196H285.557C286.169 195.188 286.475 194.937 286.475 194.44C286.475 194.192 286.387 193.999 286.211 193.859C286.034 193.72 285.792 193.651 285.484 193.651C285.183 193.651 284.93 193.726 284.723 193.876C284.517 194.023 284.414 194.209 284.414 194.434H283.051C283.051 193.896 283.276 193.457 283.726 193.115C284.177 192.769 284.75 192.596 285.444 192.596C286.199 192.596 286.787 192.75 287.208 193.058C287.628 193.367 287.838 193.805 287.838 194.372ZM291.28 196.391H290.587V198.805H289.218V192.704H290.587V195.14H291.19L292.874 192.704H294.564L292.362 195.625L294.75 198.805H292.97L291.28 196.391ZM299.307 192.704H300.67V198.805H299.307V194.733L296.919 198.805H295.556V192.704H296.919V196.775L299.307 192.704Z" fill="#A4A9B3"/>
<path d="M84.74 191.117L86.4943 189.361V198.65C86.4943 198.876 86.5833 199.092 86.7431 199.252C86.9022 199.411 87.1181 199.501 87.3438 199.501C87.5688 199.501 87.7855 199.411 87.9445 199.252C88.1044 199.092 88.1934 198.876 88.1934 198.65V189.361L89.9477 191.117C90.026 191.197 90.1199 191.259 90.2229 191.303C90.3267 191.346 90.4371 191.368 90.5492 191.368C90.6604 191.368 90.7717 191.346 90.8747 191.304C90.9777 191.261 91.0716 191.198 91.1507 191.119C91.2298 191.04 91.2924 190.946 91.3353 190.843C91.3781 190.739 91.3996 190.628 91.3996 190.516C91.3996 190.405 91.3773 190.293 91.3345 190.19C91.2916 190.087 91.2282 189.993 91.1491 189.914L87.9445 186.706C87.8654 186.627 87.7723 186.565 87.6693 186.522C87.5655 186.479 87.4551 186.457 87.3438 186.457C87.2326 186.457 87.1214 186.479 87.0184 186.522C86.9154 186.565 86.8214 186.627 86.7431 186.706L83.5386 189.914C83.4587 189.993 83.396 190.087 83.3532 190.19C83.3104 190.293 83.2881 190.405 83.2881 190.516C83.2873 190.628 83.3095 190.739 83.3524 190.843C83.3952 190.946 83.4578 191.04 83.537 191.119C83.6161 191.198 83.71 191.261 83.813 191.304C83.916 191.346 84.0272 191.368 84.1385 191.368C84.2505 191.368 84.361 191.346 84.464 191.303C84.5678 191.259 84.6609 191.197 84.74 191.117Z" fill="#037CFF"/>
<path d="M94.7091 193.83C94.4833 193.83 94.2674 193.919 94.1076 194.079C93.9485 194.238 93.8587 194.454 93.8587 194.68V201.202H80.8295V194.68C80.8295 194.454 80.7399 194.238 80.5805 194.079C80.4212 193.919 80.205 193.83 79.9797 193.83C79.7543 193.83 79.5382 193.919 79.3788 194.079C79.2195 194.238 79.1299 194.454 79.1299 194.68V201.486C79.1299 201.862 79.2791 202.222 79.5448 202.488C79.8103 202.754 80.1706 202.904 80.5462 202.904H94.1422C94.5179 202.904 94.878 202.754 95.1433 202.488C95.4095 202.222 95.5586 201.862 95.5586 201.486V194.68C95.5586 194.454 95.4688 194.238 95.3098 194.079C95.1499 193.919 94.934 193.83 94.7091 193.83Z" fill="#037CFF"/>
<path d="M226.219 143.535C225.596 143.535 224.959 143.457 224.328 143.29L166.992 127.918C163.061 126.834 160.718 122.758 161.749 118.823L168.983 91.8289C169.25 90.8382 170.266 90.2624 171.252 90.5148C172.242 90.7788 172.828 91.7992 172.565 92.7866L165.334 119.774C164.819 121.741 165.998 123.79 167.967 124.336L225.282 139.7C227.25 140.22 229.282 139.047 229.794 137.087L232.69 126.344C232.957 125.354 233.973 124.763 234.963 125.034C235.953 125.302 236.535 126.322 236.272 127.309L233.38 138.037C232.508 141.341 229.505 143.535 226.219 143.535Z" fill="#868E99"/>
<path d="M243.08 121.263H183.752C179.662 121.263 176.336 117.933 176.336 113.838V69.2929C176.336 65.1984 179.662 61.8687 183.752 61.8687H243.08C247.17 61.8687 250.496 65.1984 250.496 69.2929V113.838C250.496 117.933 247.17 121.263 243.08 121.263ZM183.752 65.5808C181.709 65.5808 180.044 67.2475 180.044 69.2929V113.838C180.044 115.884 181.709 117.55 183.752 117.55H243.08C245.123 117.55 246.788 115.884 246.788 113.838V69.2929C246.788 67.2475 245.123 65.5808 243.08 65.5808H183.752Z" fill="#868E99"/>
<path d="M194.876 87.8534C190.786 87.8534 187.46 84.5232 187.46 80.4291C187.46 76.3347 190.786 73.0049 194.876 73.0049C198.965 73.0049 202.292 76.3347 202.292 80.4291C202.292 84.5232 198.965 87.8534 194.876 87.8534ZM194.876 76.717C192.832 76.717 191.168 78.3837 191.168 80.4291C191.168 82.4745 192.832 84.1412 194.876 84.1412C196.919 84.1412 198.584 82.4745 198.584 80.4291C198.584 78.3837 196.919 76.717 194.876 76.717Z" fill="#868E99"/>
<path d="M178.45 117.291C177.975 117.291 177.501 117.109 177.137 116.749C176.415 116.025 176.415 114.848 177.137 114.125L194.651 96.5918C196.749 94.4907 200.416 94.4907 202.515 96.5918L207.728 101.811L222.16 84.4754C223.21 83.2174 224.752 82.4858 226.394 82.4709H226.435C228.06 82.4709 229.598 83.1762 230.658 84.4127L250.051 107.064C250.719 107.839 250.63 109.013 249.851 109.681C249.077 110.349 247.908 110.264 247.237 109.48L227.845 86.8289C227.484 86.4131 226.988 86.183 226.435 86.183C226.05 86.15 225.371 86.4173 225.012 86.8512L209.278 105.75C208.944 106.151 208.459 106.392 207.936 106.414C207.409 106.451 206.909 106.243 206.542 105.872L199.894 99.2167C199.192 98.5188 197.973 98.5188 197.272 99.2167L179.759 116.749C179.399 117.109 178.924 117.291 178.45 117.291Z" fill="#868E99"/>
</g>
<defs>
<clipPath id="clip0">
<rect width="412" height="245" fill="white"/>
</clipPath>
</defs>
</svg>
