<svg width="362" height="215" viewBox="0 0 362 215" fill="none" xmlns="http://www.w3.org/2000/svg">
<g clip-path="url(#clip0)">
<path d="M351.14 0.361816H10.8598C5.06193 0.361816 0.361816 5.06132 0.361816 10.8584V204.141C0.361816 209.938 5.06193 214.638 10.8598 214.638H351.14C356.938 214.638 361.638 209.938 361.638 204.141V10.8584C361.638 5.06132 356.938 0.361816 351.14 0.361816Z" fill="#F5F6FA" stroke="#037CFF"/>
<path d="M92.6807 174.461V167.256H95.1502C95.9655 167.256 96.5852 167.419 97.0109 167.746C97.4366 168.073 97.6495 168.559 97.6495 169.206C97.6495 169.536 97.5604 169.833 97.3823 170.097C97.2042 170.36 96.9436 170.565 96.6004 170.71C96.9899 170.816 97.2897 171.015 97.5011 171.309C97.7154 171.6 97.8225 171.949 97.8225 172.358C97.8225 173.034 97.6046 173.554 97.1695 173.917C96.7372 174.28 96.1168 174.461 95.3088 174.461H92.6807ZM93.9325 171.21V173.462H95.3233C95.7157 173.462 96.0227 173.365 96.2442 173.17C96.465 172.975 96.5758 172.704 96.5758 172.358C96.5758 171.609 96.1928 171.227 95.4275 171.21H93.9325ZM93.9325 170.289H95.1604C95.5492 170.289 95.8532 170.203 96.0704 170.027C96.292 169.849 96.402 169.599 96.402 169.275C96.402 168.919 96.2999 168.661 96.0958 168.503C95.8945 168.345 95.5788 168.265 95.1502 168.265H93.9325V170.289ZM100.253 170.809H101.431C101.87 170.809 102.252 170.885 102.579 171.037C102.906 171.188 103.153 171.401 103.321 171.675C103.493 171.949 103.578 172.267 103.578 172.63C103.578 173.181 103.384 173.623 102.995 173.957C102.605 174.29 102.088 174.458 101.44 174.461H99.0504V169.107H100.253V170.809ZM105.672 174.461H104.47V169.107H105.672V174.461ZM100.253 171.774V173.501H101.426C101.719 173.501 101.95 173.429 102.119 173.283C102.29 173.135 102.376 172.926 102.376 172.655C102.376 172.384 102.292 172.172 102.124 172.017C101.959 171.858 101.734 171.778 101.45 171.774H100.253ZM109.637 169.404C110.309 169.404 110.849 169.63 111.255 170.082C111.661 170.53 111.864 171.141 111.864 171.912V171.972C111.864 172.744 111.642 173.37 111.201 173.847C110.762 174.326 110.165 174.565 109.409 174.565C108.673 174.565 108.079 174.321 107.627 173.833C107.175 173.344 106.949 172.678 106.949 171.833V171.487C106.949 170.333 107.153 169.419 107.562 168.745C107.972 168.073 108.583 167.652 109.394 167.484C109.85 167.392 110.143 167.294 110.275 167.192C110.41 167.086 110.478 166.944 110.478 166.766H111.448C111.448 167.099 111.393 167.37 111.285 167.578C111.176 167.785 111.009 167.956 110.785 168.087C110.561 168.216 110.174 168.338 109.627 168.454C109.125 168.559 108.743 168.747 108.478 169.017C108.218 169.288 108.042 169.662 107.953 170.141C108.432 169.649 108.993 169.404 109.637 169.404ZM109.399 170.369C109.01 170.369 108.704 170.501 108.483 170.765C108.263 171.026 108.152 171.428 108.152 171.972C108.152 172.486 108.26 172.887 108.478 173.175C108.696 173.462 109.006 173.605 109.409 173.605C109.808 173.605 110.117 173.462 110.335 173.175C110.556 172.885 110.666 172.449 110.666 171.868C110.666 171.406 110.556 171.042 110.335 170.774C110.117 170.504 109.805 170.369 109.399 170.369ZM115.164 174.56C114.403 174.56 113.784 174.321 113.309 173.843C112.837 173.361 112.601 172.721 112.601 171.922V171.774C112.601 171.24 112.704 170.763 112.908 170.344C113.116 169.922 113.406 169.594 113.779 169.359C114.152 169.125 114.568 169.008 115.026 169.008C115.755 169.008 116.318 169.24 116.714 169.706C117.113 170.171 117.313 170.829 117.313 171.68V172.165H113.814C113.85 172.607 113.997 172.957 114.254 173.214C114.515 173.472 114.842 173.601 115.234 173.601C115.785 173.601 116.234 173.378 116.58 172.932L117.229 173.551C117.014 173.871 116.727 174.12 116.368 174.298C116.011 174.473 115.61 174.56 115.164 174.56ZM115.021 169.973C114.691 169.973 114.424 170.088 114.22 170.319C114.018 170.55 113.89 170.872 113.834 171.284H116.125V171.195C116.098 170.792 115.991 170.489 115.803 170.284C115.615 170.077 115.354 169.973 115.021 169.973ZM122.94 171.839C122.94 172.667 122.752 173.328 122.376 173.823C122 174.314 121.495 174.56 120.862 174.56C120.274 174.56 119.804 174.367 119.451 173.981V176.52H118.248V169.107H119.356L119.406 169.651C119.759 169.222 120.239 169.008 120.846 169.008C121.499 169.008 122.011 169.252 122.381 169.741C122.753 170.225 122.94 170.9 122.94 171.764V171.839ZM121.742 171.734C121.742 171.2 121.635 170.777 121.421 170.463C121.209 170.15 120.906 169.993 120.51 169.993C120.018 169.993 119.666 170.195 119.451 170.601V172.977C119.668 173.392 120.025 173.601 120.52 173.601C120.903 173.601 121.201 173.447 121.416 173.14C121.633 172.83 121.742 172.361 121.742 171.734ZM127.305 169.107H128.503V174.461H127.305V170.888L125.207 174.461H124.009V169.107H125.207V172.68L127.305 169.107ZM133.996 170.062H132.26V174.461H131.057V170.062H129.34V169.107H133.996V170.062ZM136.843 174.56C136.08 174.56 135.462 174.321 134.986 173.843C134.515 173.361 134.279 172.721 134.279 171.922V171.774C134.279 171.24 134.381 170.763 134.586 170.344C134.794 169.922 135.084 169.594 135.457 169.359C135.83 169.125 136.245 169.008 136.703 169.008C137.433 169.008 137.996 169.24 138.391 169.706C138.791 170.171 138.991 170.829 138.991 171.68V172.165H135.492C135.528 172.607 135.675 172.957 135.932 173.214C136.192 173.472 136.519 173.601 136.911 173.601C137.463 173.601 137.911 173.378 138.258 172.932L138.906 173.551C138.692 173.871 138.405 174.12 138.045 174.298C137.689 174.473 137.288 174.56 136.843 174.56ZM136.699 169.973C136.369 169.973 136.102 170.088 135.897 170.319C135.696 170.55 135.567 170.872 135.511 171.284H137.803V171.195C137.776 170.792 137.669 170.489 137.481 170.284C137.293 170.077 137.032 169.973 136.699 169.973ZM142.252 171.858C142.252 170.984 142.423 170.292 142.766 169.78C143.113 169.265 143.595 169.008 144.212 169.008C144.463 169.008 144.69 169.054 144.895 169.146V166.86H146.092V169.167C146.304 169.061 146.551 169.008 146.835 169.008C147.448 169.008 147.928 169.264 148.275 169.775C148.625 170.283 148.799 171.012 148.799 171.962C148.799 172.764 148.625 173.397 148.275 173.863C147.925 174.327 147.448 174.56 146.845 174.56C146.571 174.56 146.32 174.51 146.092 174.412V176.52H144.895V174.432C144.694 174.517 144.463 174.56 144.202 174.56C143.624 174.56 143.162 174.348 142.816 173.922C142.473 173.493 142.286 172.904 142.257 172.155L142.252 171.858ZM147.597 171.858C147.597 171.258 147.501 170.795 147.31 170.467C147.118 170.138 146.848 169.973 146.498 169.973C146.35 169.973 146.215 169.994 146.092 170.037V173.551C146.202 173.584 146.34 173.601 146.508 173.601C147.234 173.601 147.597 173.019 147.597 171.858ZM143.45 171.962C143.45 172.497 143.539 172.904 143.717 173.184C143.895 173.462 144.159 173.601 144.509 173.601C144.657 173.601 144.786 173.584 144.895 173.551V170.022C144.783 169.99 144.657 169.973 144.518 169.973C144.175 169.973 143.912 170.133 143.727 170.453C143.542 170.769 143.45 171.272 143.45 171.962ZM149.612 171.734C149.612 171.21 149.715 170.738 149.923 170.319C150.131 169.897 150.423 169.573 150.799 169.349C151.176 169.122 151.608 169.008 152.096 169.008C152.818 169.008 153.404 169.24 153.853 169.706C154.305 170.171 154.549 170.787 154.586 171.556L154.59 171.839C154.59 172.366 154.488 172.838 154.284 173.254C154.082 173.669 153.792 173.991 153.413 174.219C153.036 174.446 152.6 174.56 152.106 174.56C151.35 174.56 150.745 174.309 150.289 173.808C149.838 173.303 149.612 172.632 149.612 171.794V171.734ZM150.814 171.839C150.814 172.389 150.928 172.822 151.155 173.135C151.383 173.445 151.7 173.601 152.106 173.601C152.511 173.601 152.827 173.442 153.051 173.125C153.279 172.809 153.392 172.345 153.392 171.734C153.392 171.194 153.275 170.765 153.041 170.448C152.81 170.132 152.495 169.973 152.096 169.973C151.703 169.973 151.391 170.129 151.16 170.443C150.929 170.753 150.814 171.218 150.814 171.839ZM159.673 170.062H157.936V174.461H156.733V170.062H155.016V169.107H159.673V170.062ZM160.104 171.734C160.104 171.21 160.207 170.738 160.415 170.319C160.623 169.897 160.916 169.573 161.291 169.349C161.668 169.122 162.1 169.008 162.588 169.008C163.31 169.008 163.896 169.24 164.345 169.706C164.797 170.171 165.042 170.787 165.078 171.556L165.083 171.839C165.083 172.366 164.98 172.838 164.776 173.254C164.575 173.669 164.284 173.991 163.905 174.219C163.528 174.446 163.093 174.56 162.598 174.56C161.842 174.56 161.237 174.309 160.782 173.808C160.33 173.303 160.104 172.632 160.104 171.794V171.734ZM161.306 171.839C161.306 172.389 161.42 172.822 161.648 173.135C161.876 173.445 162.192 173.601 162.598 173.601C163.004 173.601 163.319 173.442 163.544 173.125C163.771 172.809 163.885 172.345 163.885 171.734C163.885 171.194 163.768 170.765 163.533 170.448C163.303 170.132 162.988 169.973 162.588 169.973C162.196 169.973 161.883 170.129 161.653 170.443C161.422 170.753 161.306 171.218 161.306 171.839ZM169.666 170.077H167.34V174.461H166.142V169.107H169.666V170.077ZM175.036 171.839C175.036 172.667 174.847 173.328 174.471 173.823C174.095 174.314 173.591 174.56 172.957 174.56C172.369 174.56 171.899 174.367 171.546 173.981V176.52H170.343V169.107H171.452L171.502 169.651C171.854 169.222 172.335 169.008 172.942 169.008C173.595 169.008 174.107 169.252 174.476 169.741C174.849 170.225 175.036 170.9 175.036 171.764V171.839ZM173.837 171.734C173.837 171.2 173.73 170.777 173.516 170.463C173.305 170.15 173.001 169.993 172.605 169.993C172.114 169.993 171.761 170.195 171.546 170.601V172.977C171.764 173.392 172.12 173.601 172.615 173.601C172.998 173.601 173.297 173.447 173.511 173.14C173.729 172.83 173.837 172.361 173.837 171.734ZM179.257 174.461C179.204 174.359 179.158 174.193 179.118 173.962C178.736 174.361 178.268 174.56 177.713 174.56C177.175 174.56 176.736 174.407 176.397 174.1C176.057 173.793 175.887 173.414 175.887 172.962C175.887 172.391 176.098 171.954 176.52 171.65C176.946 171.343 177.553 171.19 178.341 171.19H179.079V170.839C179.079 170.562 179.002 170.341 178.846 170.176C178.691 170.008 178.455 169.923 178.139 169.923C177.865 169.923 177.641 169.993 177.465 170.132C177.291 170.266 177.203 170.44 177.203 170.651H176.001C176.001 170.357 176.098 170.083 176.293 169.83C176.487 169.572 176.752 169.371 177.085 169.226C177.421 169.08 177.796 169.008 178.208 169.008C178.835 169.008 179.335 169.167 179.708 169.483C180.081 169.796 180.272 170.239 180.282 170.809V173.224C180.282 173.705 180.349 174.09 180.485 174.377V174.461H179.257ZM177.936 173.595C178.174 173.595 178.396 173.538 178.604 173.422C178.815 173.307 178.974 173.152 179.079 172.957V171.947H178.431C177.985 171.947 177.65 172.025 177.426 172.18C177.202 172.335 177.09 172.554 177.09 172.838C177.09 173.069 177.165 173.254 177.317 173.392C177.472 173.527 177.678 173.595 177.936 173.595ZM181.341 171.858C181.341 170.984 181.513 170.292 181.856 169.78C182.202 169.265 182.684 169.008 183.301 169.008C183.551 169.008 183.779 169.054 183.984 169.146V166.86H185.181V169.167C185.392 169.061 185.64 169.008 185.924 169.008C186.537 169.008 187.018 169.264 187.364 169.775C187.714 170.283 187.889 171.012 187.889 171.962C187.889 172.764 187.714 173.397 187.364 173.863C187.014 174.327 186.537 174.56 185.933 174.56C185.66 174.56 185.409 174.51 185.181 174.412V176.52H183.984V174.432C183.782 174.517 183.551 174.56 183.291 174.56C182.714 174.56 182.252 174.348 181.905 173.922C181.562 173.493 181.376 172.904 181.346 172.155L181.341 171.858ZM186.686 171.858C186.686 171.258 186.59 170.795 186.399 170.467C186.208 170.138 185.937 169.973 185.587 169.973C185.439 169.973 185.303 169.994 185.181 170.037V173.551C185.29 173.584 185.429 173.601 185.597 173.601C186.323 173.601 186.686 173.019 186.686 171.858ZM182.538 171.962C182.538 172.497 182.628 172.904 182.806 173.184C182.984 173.462 183.248 173.601 183.598 173.601C183.746 173.601 183.875 173.584 183.984 173.551V170.022C183.871 169.99 183.746 169.973 183.608 169.973C183.265 169.973 183 170.133 182.816 170.453C182.631 170.769 182.538 171.272 182.538 171.962ZM192.268 169.107H193.467V174.461H192.268V170.888L190.17 174.461H188.973V169.107H190.17V172.68L192.268 169.107ZM198.089 169.107H199.287V174.461H198.089V170.888L195.99 174.461H194.793V169.107H195.99V172.68L198.089 169.107ZM203.112 173.501C203.445 173.129 203.668 172.775 203.781 172.442C203.896 172.106 203.965 171.677 203.988 171.156L204.058 169.107H207.774V173.501H208.517V176.055H207.32V174.461H203.884V176.055H202.667L202.672 173.501H203.112ZM204.523 173.501H206.577V170.141H205.226L205.191 171.165C205.145 172.148 204.922 172.927 204.523 173.501ZM213.927 169.107V174.461H212.723V170.077H211.21L211.11 171.943C211.047 172.84 210.874 173.485 210.591 173.877C210.31 174.267 209.88 174.461 209.299 174.461H208.928L208.922 173.462L209.17 173.437C209.434 173.401 209.626 173.241 209.744 172.957C209.867 172.67 209.944 172.148 209.977 171.393L210.076 169.107H213.927ZM219.494 169.107V174.461H218.297V172.497H217.173L216.03 174.461H214.783L216.044 172.299C215.715 172.16 215.461 171.962 215.283 171.705C215.108 171.448 215.02 171.152 215.02 170.819C215.02 170.321 215.212 169.914 215.594 169.597C215.98 169.277 216.5 169.114 217.154 169.107H219.494ZM216.223 170.849C216.223 171.073 216.305 171.257 216.47 171.398C216.639 171.537 216.853 171.606 217.114 171.606H218.297V170.062H217.188C216.894 170.062 216.66 170.136 216.485 170.284C216.31 170.433 216.223 170.621 216.223 170.849ZM227.408 170.572C227.408 170.809 227.335 171.028 227.19 171.23C227.049 171.428 226.847 171.586 226.587 171.705C227.2 171.92 227.507 172.334 227.507 172.947C227.507 173.438 227.308 173.831 226.908 174.125C226.509 174.415 225.974 174.56 225.304 174.56C224.895 174.56 224.523 174.492 224.186 174.357C223.85 174.219 223.587 174.024 223.399 173.774C223.211 173.519 223.117 173.219 223.117 172.873H224.315C224.315 173.09 224.412 173.273 224.607 173.422C224.801 173.567 225.047 173.64 225.344 173.64C225.638 173.64 225.871 173.572 226.042 173.437C226.217 173.299 226.304 173.118 226.304 172.898C226.304 172.637 226.228 172.449 226.077 172.334C225.925 172.218 225.691 172.16 225.374 172.16H224.513V171.294H225.404C225.942 171.288 226.21 171.067 226.21 170.631C226.21 170.413 226.133 170.244 225.978 170.121C225.823 169.999 225.61 169.938 225.339 169.938C225.076 169.938 224.853 170.004 224.671 170.136C224.49 170.265 224.399 170.428 224.399 170.626H223.201C223.201 170.154 223.399 169.768 223.795 169.468C224.191 169.164 224.694 169.013 225.304 169.013C225.968 169.013 226.485 169.148 226.854 169.419C227.223 169.689 227.408 170.074 227.408 170.572ZM231.728 174.461C231.676 174.359 231.63 174.193 231.59 173.962C231.207 174.361 230.739 174.56 230.185 174.56C229.647 174.56 229.208 174.407 228.868 174.1C228.528 173.793 228.358 173.414 228.358 172.962C228.358 172.391 228.57 171.954 228.992 171.65C229.417 171.343 230.025 171.19 230.813 171.19H231.55V170.839C231.55 170.562 231.473 170.341 231.318 170.176C231.163 170.008 230.927 169.923 230.61 169.923C230.336 169.923 230.112 169.993 229.937 170.132C229.762 170.266 229.675 170.44 229.675 170.651H228.472C228.472 170.357 228.57 170.083 228.764 169.83C228.959 169.572 229.223 169.371 229.556 169.226C229.892 169.08 230.267 169.008 230.679 169.008C231.306 169.008 231.806 169.167 232.179 169.483C232.552 169.796 232.744 170.239 232.753 170.809V173.224C232.753 173.705 232.821 174.09 232.956 174.377V174.461H231.728ZM230.407 173.595C230.645 173.595 230.868 173.538 231.075 173.422C231.287 173.307 231.445 173.152 231.55 172.957V171.947H230.902C230.457 171.947 230.122 172.025 229.898 172.18C229.673 172.335 229.561 172.554 229.561 172.838C229.561 173.069 229.637 173.254 229.789 173.392C229.944 173.527 230.15 173.595 230.407 173.595ZM237.578 170.077H235.253V174.461H234.055V169.107H237.578V170.077ZM242.948 171.839C242.948 172.667 242.761 173.328 242.384 173.823C242.009 174.314 241.503 174.56 240.87 174.56C240.283 174.56 239.813 174.367 239.459 173.981V176.52H238.257V169.107H239.365L239.415 169.651C239.768 169.222 240.248 169.008 240.855 169.008C241.508 169.008 242.02 169.252 242.389 169.741C242.762 170.225 242.948 170.9 242.948 171.764V171.839ZM241.751 171.734C241.751 171.2 241.644 170.777 241.429 170.463C241.218 170.15 240.915 169.993 240.519 169.993C240.027 169.993 239.674 170.195 239.459 170.601V172.977C239.677 173.392 240.034 173.601 240.529 173.601C240.911 173.601 241.21 173.447 241.424 173.14C241.642 172.83 241.751 172.361 241.751 171.734ZM245.784 172.739L246.873 169.107H248.155L246.027 175.273C245.7 176.173 245.146 176.624 244.364 176.624C244.189 176.624 243.996 176.594 243.785 176.535V175.604L244.013 175.619C244.316 175.619 244.544 175.563 244.696 175.451C244.851 175.342 244.973 175.158 245.062 174.897L245.235 174.437L243.355 169.107H244.651L245.784 172.739ZM252.906 170.572C252.906 170.809 252.834 171.028 252.689 171.23C252.547 171.428 252.346 171.586 252.085 171.705C252.698 171.92 253.005 172.334 253.005 172.947C253.005 173.438 252.806 173.831 252.407 174.125C252.007 174.415 251.473 174.56 250.803 174.56C250.394 174.56 250.021 174.492 249.684 174.357C249.348 174.219 249.086 174.024 248.897 173.774C248.709 173.519 248.616 173.219 248.616 172.873H249.813C249.813 173.09 249.91 173.273 250.105 173.422C250.3 173.567 250.546 173.64 250.843 173.64C251.136 173.64 251.369 173.572 251.541 173.437C251.715 173.299 251.803 173.118 251.803 172.898C251.803 172.637 251.727 172.449 251.575 172.334C251.423 172.218 251.189 172.16 250.873 172.16H250.011V171.294H250.902C251.44 171.288 251.709 171.067 251.709 170.631C251.709 170.413 251.631 170.244 251.476 170.121C251.321 169.999 251.109 169.938 250.838 169.938C250.574 169.938 250.351 170.004 250.17 170.136C249.988 170.265 249.897 170.428 249.897 170.626H248.7C248.7 170.154 248.897 169.768 249.293 169.468C249.69 169.164 250.193 169.013 250.803 169.013C251.466 169.013 251.982 169.148 252.352 169.419C252.722 169.689 252.906 170.074 252.906 170.572ZM255.93 172.343H255.321V174.461H254.119V169.107H255.321V171.245H255.851L257.331 169.107H258.816L256.881 171.671L258.979 174.461H257.415L255.93 172.343ZM262.983 169.107H264.181V174.461H262.983V170.888L260.885 174.461H259.687V169.107H260.885V172.68L262.983 169.107Z" fill="#A4A9B3"/>
<path d="M74.4564 167.715L75.9978 166.174V174.326C75.9978 174.524 76.076 174.713 76.2164 174.854C76.3561 174.993 76.5458 175.072 76.7442 175.072C76.9419 175.072 77.1323 174.993 77.272 174.854C77.4125 174.713 77.4906 174.524 77.4906 174.326V166.174L79.032 167.715C79.1008 167.785 79.1834 167.84 79.2739 167.878C79.3651 167.916 79.4621 167.935 79.5606 167.935C79.6583 167.935 79.756 167.916 79.8465 167.879C79.937 167.841 80.0196 167.786 80.0891 167.717C80.1586 167.647 80.2136 167.565 80.2513 167.474C80.2889 167.383 80.3077 167.286 80.3077 167.188C80.3077 167.09 80.2882 166.992 80.2505 166.902C80.2129 166.811 80.1571 166.729 80.0876 166.659L77.272 163.844C77.2025 163.775 77.1207 163.72 77.0302 163.682C76.939 163.645 76.8419 163.625 76.7442 163.625C76.6465 163.625 76.5487 163.645 76.4582 163.682C76.3677 163.72 76.2852 163.775 76.2164 163.844L73.4008 166.659C73.3306 166.729 73.2755 166.811 73.2379 166.902C73.2002 166.992 73.1807 167.09 73.1807 167.188C73.18 167.286 73.1995 167.383 73.2372 167.474C73.2748 167.565 73.3298 167.647 73.3993 167.717C73.4688 167.786 73.5514 167.841 73.6419 167.879C73.7324 167.916 73.8301 167.935 73.9278 167.935C74.0263 167.935 74.1233 167.916 74.2138 167.878C74.3051 167.84 74.3869 167.785 74.4564 167.715Z" fill="#037CFF"/>
<path d="M83.2154 170.095C83.017 170.095 82.8273 170.174 82.6869 170.314C82.5471 170.454 82.4682 170.643 82.4682 170.842V176.565H71.0202V170.842C71.0202 170.643 70.9415 170.454 70.8015 170.314C70.6614 170.174 70.4715 170.095 70.2735 170.095C70.0755 170.095 69.8856 170.174 69.7456 170.314C69.6056 170.454 69.5269 170.643 69.5269 170.842V176.814C69.5269 177.144 69.658 177.46 69.8914 177.694C70.1247 177.927 70.4413 178.058 70.7713 178.058H82.7173C83.0474 178.058 83.3638 177.927 83.5969 177.694C83.8308 177.46 83.9618 177.144 83.9618 176.814V170.842C83.9618 170.643 83.8829 170.454 83.7432 170.314C83.6027 170.174 83.413 170.095 83.2154 170.095Z" fill="#037CFF"/>
<path d="M198.766 125.96C198.218 125.96 197.658 125.891 197.104 125.745L146.726 112.255C143.273 111.304 141.214 107.727 142.119 104.274L148.475 80.5846C148.71 79.7152 149.603 79.2099 150.469 79.4314C151.339 79.663 151.854 80.5585 151.622 81.425L145.269 105.108C144.817 106.834 145.853 108.632 147.583 109.112L197.942 122.594C199.671 123.05 201.457 122.021 201.906 120.301L204.451 110.874C204.686 110.004 205.579 109.486 206.448 109.724C207.318 109.959 207.83 110.854 207.599 111.72L205.057 121.135C204.291 124.034 201.652 125.96 198.766 125.96Z" fill="#868E99"/>
<path d="M213.58 106.414H161.452C157.858 106.414 154.936 103.493 154.936 99.899V60.8081C154.936 57.215 157.858 54.293 161.452 54.293H213.58C217.174 54.293 220.096 57.215 220.096 60.8081V99.899C220.096 103.493 217.174 106.414 213.58 106.414ZM161.452 57.5505C159.657 57.5505 158.194 59.0132 158.194 60.8081V99.899C158.194 101.694 159.657 103.157 161.452 103.157H213.58C215.375 103.157 216.838 101.694 216.838 99.899V60.8081C216.838 59.0132 215.375 57.5505 213.58 57.5505H161.452Z" fill="#868E99"/>
<path d="M171.226 77.096C167.633 77.096 164.71 74.1736 164.71 70.5808C164.71 66.9877 167.633 64.0657 171.226 64.0657C174.82 64.0657 177.742 66.9877 177.742 70.5808C177.742 74.1736 174.82 77.096 171.226 77.096ZM171.226 67.3232C169.431 67.3232 167.968 68.7859 167.968 70.5808C167.968 72.3758 169.431 73.8384 171.226 73.8384C173.021 73.8384 174.484 72.3758 174.484 70.5808C174.484 68.7859 173.021 67.3232 171.226 67.3232Z" fill="#868E99"/>
<path d="M156.793 102.929C156.376 102.929 155.959 102.769 155.64 102.453C155.005 101.818 155.005 100.785 155.64 100.15L171.028 84.7643C172.872 82.9205 176.094 82.9205 177.938 84.7643L182.518 89.3445L195.198 74.1316C196.121 73.0276 197.476 72.3856 198.919 72.3726H198.955C200.382 72.3726 201.734 72.9914 202.666 74.0766L219.705 93.9543C220.292 94.6348 220.213 95.6642 219.529 96.2505C218.849 96.8369 217.822 96.7623 217.233 96.0746L200.193 76.1969C199.877 75.832 199.44 75.6301 198.955 75.6301C198.616 75.6011 198.02 75.8357 197.704 76.2164L183.88 92.8011C183.587 93.1529 183.16 93.3643 182.701 93.3838C182.238 93.4164 181.799 93.234 181.476 92.9082L175.635 87.0678C175.018 86.4553 173.947 86.4553 173.331 87.0678L157.944 102.453C157.627 102.769 157.21 102.929 156.793 102.929Z" fill="#868E99"/>
</g>
<defs>
<clipPath id="clip0">
<rect width="362" height="215" fill="white"/>
</clipPath>
</defs>
</svg>
